<svg xmlns="http://www.w3.org/2000/svg" width="30" height="30" viewBox="0 0 30 30">
  <g id="Icon_feather-instagram" data-name="Icon feather-instagram" transform="translate(-3 -3)">
    <g id="Path_1" data-name="Path 1" fill="none" stroke-linecap="round" stroke-linejoin="round">
      <path d="M10.5,3h15A7.5,7.5,0,0,1,33,10.5v15A7.5,7.5,0,0,1,25.5,33h-15A7.5,7.5,0,0,1,3,25.5v-15A7.5,7.5,0,0,1,10.5,3Z" stroke="none"/>
      <path d="M 10.5 6 C 8.01869010925293 6 6 8.01869010925293 6 10.5 L 6 25.5 C 6 27.98130989074707 8.01869010925293 30 10.5 30 L 25.5 30 C 27.98130989074707 30 30 27.98130989074707 30 25.5 L 30 10.5 C 30 8.01869010925293 27.98130989074707 6 25.5 6 L 10.5 6 M 10.5 3 L 25.5 3 C 29.64212989807129 3 33 6.357860565185547 33 10.5 L 33 25.5 C 33 29.64212989807129 29.64212989807129 33 25.5 33 L 10.5 33 C 6.357860565185547 33 3 29.64212989807129 3 25.5 L 3 10.5 C 3 6.357860565185547 6.357870101928711 3 10.5 3 Z" stroke="none" fill="#fff"/>
    </g>
    <g id="Path_2" data-name="Path 2" fill="none" stroke-linecap="round" stroke-linejoin="round">
      <path d="M24,17.055A6,6,0,1,1,18.945,12,6,6,0,0,1,24,17.055Z" stroke="none"/>
      <path d="M 18.06271553039551 14.93482398986816 C 16.92389678955078 14.93482398986816 15.89792633056641 15.5676441192627 15.38518714904785 16.58633422851562 C 14.80209541320801 17.74481391906738 15.02649688720703 19.13933372497559 15.94356536865234 20.0564136505127 C 16.51030540466309 20.62315368652344 17.26430702209473 20.93526458740234 18.06666564941406 20.93526458740234 C 18.53800582885742 20.93526458740234 18.99120712280273 20.82745361328125 19.41365623474121 20.61481475830078 C 20.57214736938477 20.03170394897461 21.22268676757812 18.77797317504883 21.03244590759277 17.49505424499512 C 20.83721542358398 16.17850303649902 19.82149696350098 15.16278457641602 18.50494575500488 14.96755409240723 C 18.35848617553711 14.94583320617676 18.20969581604004 14.93482398986816 18.06271553039551 14.93482398986816 M 18.06271553039551 11.9348258972168 C 18.35487365722656 11.9348258972168 18.64963150024414 11.95620346069336 18.94499588012695 12.00000381469727 C 21.55946731567383 12.38769340515137 23.61230659484863 14.4405345916748 23.99999618530273 17.05500411987305 C 24.37968635559082 19.61546325683594 23.07453536987305 22.13076400756836 20.76243591308594 23.29451370239258 C 18.45033836364746 24.45825386047363 15.6525764465332 24.00805473327637 13.82225608825684 22.17774391174316 C 11.99194717407227 20.3474235534668 11.54174613952637 17.54965400695801 12.70548629760742 15.23756408691406 C 13.7349910736084 13.19217872619629 15.82221794128418 11.9348258972168 18.06271553039551 11.9348258972168 Z" stroke="none" fill="#fff"/>
    </g>
    <path id="Path_3" data-name="Path 3" d="M26.25,9.75h0" fill="none" stroke="#fff" stroke-linecap="round" stroke-linejoin="round" stroke-width="3"/>
  </g>
</svg>
